<svg baseProfile="full" version="1.1" viewBox="0 0 100 100" xmlns="http://www.w3.org/2000/svg" xmlns:ev="http://www.w3.org/2001/xml-events" xmlns:xlink="http://www.w3.org/1999/xlink">
	<style>
		path { fill: black; }
		@media (prefers-color-scheme: dark) {
		path { fill: white; }
		}
	</style>
	<g transform="translate(-5.7942358490274986, -38.68332988563758)">
		<path d="M 5.5,63.227 L 15.1992,52.718999999999994 L 18.5937,54.660399999999996 L 25.2226,48.031499999999994 L 28.9414,51.10569999999999 L 36.2383,41.93769999999999 L 39.933600000000006,42.53925999999999 L 44.621100000000006,36.718959999999996 L 58.68710000000001,45.125159999999994 L 63.534800000000004,41.73065999999999 L 73.07390000000001,52.39865999999999 L 76.14420000000001,48.19555999999999 L 84.39030000000001,56.43776 L 87.46060000000001,55.953379999999996 L 94.50360000000002,63.25028 L 86.69500000000002,63.195592 L 76.75750000000002,52.566592 L 75.40200000000002,55.004092 L 77.06610000000002,60.390792 L 62.56210000000002,46.109792 L 59.472300000000025,48.484792 L 58.85121000000002,54.043392 L 66.49961000000002,61.426192 L 55.85861000000002,55.168392 L 55.43283000000002,46.574591999999996 L 44.90183000000002,39.445691999999994 L 45.19089000000002,61.234691999999995 L 38.71819000000002,53.765891999999994 L 30.72599000000002,61.74639199999999 L 25.202590000000022,59.33619199999999 L 21.979890000000022,63.29319199999999 L 16.32369000000002,63.29709799999999 L 13.69479000000002,58.98849799999999 L 5.5,63.227" fill="rgb(0,0,0)" transform="scale(1.0534974270959088)" />
	</g>
</svg>